<?xml version="1.0" encoding="UTF-8"?>
<svg version="1.1" xmlns="http://www.w3.org/2000/svg" width="360" height="360">
<path d="M0 0 C-0.0314209 0.8521106 -0.0314209 0.8521106 -0.06347656 1.72143555 C-0.6557213 20.26281898 1.44598568 34.873354 14.5 49.0625 C30.7772368 64.17925838 52.79132657 72.39825849 72.78100586 81.44042969 C87.10510095 87.92359103 101.21163461 94.36574031 113 105 C113.77859375 105.68578125 114.5571875 106.3715625 115.359375 107.078125 C123.89926319 115.04486633 130.66660871 125.18863266 131.3359375 137.12890625 C131.7688356 157.96651468 124.0787289 176.74125701 109.94140625 192.06640625 C97.89182409 204.41570911 82.86568052 212.34086233 66 216 C64.78957031 216.27457031 64.78957031 216.27457031 63.5546875 216.5546875 C61.5 216.8125 61.5 216.8125 58 216 C56.20061373 214.03617895 54.94674336 211.9888827 53.60546875 209.6875 C38.33655161 184.12785282 10.73180344 166.75199242 -17 158 C-14.84483087 151.53449261 -5.54367129 147.40143027 0.296875 144.18359375 C15.82786004 136.62644371 31.44886685 134.59201347 48 140 C63.11222401 146.14142143 74.86986777 156.41407814 85 169 C90.00856875 160.72691769 92.72760105 153.71922493 91 144 C83.44709829 121.28471882 60.42071796 110.23167171 40.56640625 100.23046875 C35.27190368 97.60333278 29.93724433 95.08266888 24.5625 92.625 C8.53380835 85.26478818 -6.6724284 74.66002353 -13.28125 57.71484375 C-18.243364 41.99557546 -18.87273435 24.72738913 -11.125 9.8125 C-5.16952184 0 -5.16952184 0 0 0 Z " fill="#484546" transform="translate(106,102)"/>
<path d="M0 0 C2.0546875 -0.2578125 2.0546875 -0.2578125 5.5546875 0.5546875 C7.35407377 2.51850855 8.60794414 4.5658048 9.94921875 6.8671875 C25.21813589 32.42683468 52.82288406 49.80269508 80.5546875 58.5546875 C78.39951837 65.02019489 69.09835879 69.15325723 63.2578125 72.37109375 C47.72682746 79.92824379 32.10582065 81.96267403 15.5546875 76.5546875 C0.44246349 70.41326607 -11.31518027 60.14060936 -21.4453125 47.5546875 C-26.45388125 55.82776981 -29.17291355 62.83546257 -27.4453125 72.5546875 C-19.89241079 95.26996868 3.13396954 106.32301579 22.98828125 116.32421875 C28.28278382 118.95135472 33.61744317 121.47201862 38.9921875 123.9296875 C55.02087915 131.28989932 70.2271159 141.89466397 76.8359375 158.83984375 C81.7980515 174.55911204 82.42742185 191.82729837 74.6796875 206.7421875 C72.35470443 210.57292884 70.08900231 213.78454886 66.5546875 216.5546875 C65.5646875 216.5546875 64.5746875 216.5546875 63.5546875 216.5546875 C63.57563477 215.98661377 63.59658203 215.41854004 63.61816406 214.83325195 C64.2104088 196.29186852 62.10870182 181.6813335 49.0546875 167.4921875 C32.7774507 152.37542912 10.76336093 144.15642901 -9.22631836 135.11425781 C-23.55041345 128.63109647 -37.65694711 122.18894719 -49.4453125 111.5546875 C-50.22390625 110.86890625 -51.0025 110.183125 -51.8046875 109.4765625 C-60.34457569 101.50982117 -67.11192121 91.36605484 -67.78125 79.42578125 C-68.2141481 58.58817282 -60.5240414 39.81343049 -46.38671875 24.48828125 C-33.53783616 11.31979621 -17.83655631 4.04599201 0 0 Z " fill="#E93333" transform="translate(190.4453125,41.4453125)"/>
<path d="M0 0 C19.22436201 9.05692023 37.75445497 19.83770356 47 40 C51.97079179 54.24290846 49.2818629 69.79716648 43.1171875 83.1875 C32.82997841 104.37919821 16.64989953 119.39115022 -5.71484375 127.31640625 C-9.12772094 128.36175924 -12.51273865 129.24341213 -16 130 C-17.21042969 130.27457031 -17.21042969 130.27457031 -18.4453125 130.5546875 C-20.5 130.8125 -20.5 130.8125 -24 130 C-25.79938627 128.03617895 -27.05325664 125.9888827 -28.39453125 123.6875 C-43.49138154 98.41588686 -70.77063744 81.23336098 -98 72 C-91.9667293 66.66287592 -83.7927091 67.78721203 -76.1875 67.75 C-75.14529297 67.729375 -74.10308594 67.70875 -73.02929688 67.6875 C-67.18446569 67.65814743 -62.33601773 68.14821918 -56.86987305 70.27319336 C-54.78580634 71.13135081 -54.78580634 71.13135081 -51.625 71.8125 C-47.30422723 73.22792556 -43.65088125 75.31960914 -39.70703125 77.55859375 C-37.38663187 78.79413108 -35.2395013 79.69272482 -32.75 80.5 C-29.07616021 81.78174532 -26.67941986 83.72152402 -23.8359375 86.33984375 C-21.8652468 88.1218513 -19.80648539 89.71024964 -17.6875 91.3125 C-12.54338053 95.26815049 -7.77142545 99.607101 -3 104 C-2.401875 103.67 -1.80375 103.34 -1.1875 103 C1 102 1 102 4 102 C4 101.34 4 100.68 4 100 C4.99 99.67 5.98 99.34 7 99 C7.495 97.515 7.495 97.515 8 96 C9.55859375 94.71875 9.55859375 94.71875 11.4375 93.5 C14.13920842 91.74022333 15.1327142 90.8009287 17 88 C17.66 88 18.32 88 19 88 C19.226875 87.29875 19.45375 86.5975 19.6875 85.875 C21.01094147 82.97603297 22.68873982 80.98861425 24.76171875 78.59765625 C28.39402464 73.91117956 29.3113712 68.73857334 30 63 C30.33 62.67 30.66 62.34 31 62 C31.90341299 48.69203174 29.74860696 36.66603703 23 25 C22.01 24.34 21.02 23.68 20 23 C19.505 21.515 19.505 21.515 19 20 C17.37764038 18.29017404 15.703703 16.6287884 14 15 C13.16339844 14.15179688 12.32679688 13.30359375 11.46484375 12.4296875 C10.63082031 11.58664063 9.79679687 10.74359375 8.9375 9.875 C8.10089844 9.02679688 7.26429688 8.17859375 6.40234375 7.3046875 C4.10528998 4.99702428 4.10528998 4.99702428 1.69140625 3.3203125 C0.85416016 2.66675781 0.85416016 2.66675781 0 2 C0 1.34 0 0.68 0 0 Z " fill="#312E2F" transform="translate(188,188)"/>
<path d="M0 0 C2.0546875 -0.2578125 2.0546875 -0.2578125 5.5546875 0.5546875 C7.35407377 2.51850855 8.60794414 4.5658048 9.94921875 6.8671875 C24.39303569 31.04564505 51.06047987 49.31664482 77.5546875 57.5546875 C77.5546875 58.5446875 77.5546875 59.5346875 77.5546875 60.5546875 C71.52486936 62.30326537 66.13157022 62.87592169 59.8671875 62.8046875 C58.98796631 62.79646973 58.10874512 62.78825195 57.20288086 62.77978516 C45.8734981 62.58665298 36.7395801 61.1564031 26.52734375 55.9921875 C23.5866423 54.48872666 23.5866423 54.48872666 20.4453125 53.53515625 C7.51225121 49.14840168 -5.27051605 36.41759368 -14.4453125 26.5546875 C-14.4453125 25.8946875 -14.4453125 25.2346875 -14.4453125 24.5546875 C-16.4253125 25.2146875 -18.4053125 25.8746875 -20.4453125 26.5546875 C-20.4453125 27.5446875 -20.4453125 28.5346875 -20.4453125 29.5546875 C-26.1953125 32.5546875 -26.1953125 32.5546875 -28.4453125 32.5546875 C-28.70441406 33.14378906 -28.96351563 33.73289063 -29.23046875 34.33984375 C-30.89215504 37.36934899 -33.18207537 39.33988144 -35.69140625 41.67578125 C-37.68970549 43.81649825 -38.99647442 46.01167482 -40.4453125 48.5546875 C-41.02410156 49.46605469 -41.60289062 50.37742188 -42.19921875 51.31640625 C-46.1491485 57.70624941 -48.86479431 63.03850463 -49.4453125 70.5546875 C-49.54972656 71.85664062 -49.65414062 73.15859375 -49.76171875 74.5 C-50.29758099 84.55824818 -48.60921245 91.71647413 -43.4453125 100.5546875 C-43.0740625 101.26625 -42.7028125 101.9778125 -42.3203125 102.7109375 C-37.17298113 111.94585555 -26.95313355 123.80077698 -17.4453125 128.5546875 C-17.4453125 129.2146875 -17.4453125 129.8746875 -17.4453125 130.5546875 C-29.23371585 127.07674241 -40.39130009 119.7222931 -49.4453125 111.5546875 C-50.22390625 110.86890625 -51.0025 110.183125 -51.8046875 109.4765625 C-60.34457569 101.50982117 -67.11192121 91.36605484 -67.78125 79.42578125 C-68.2141481 58.58817282 -60.5240414 39.81343049 -46.38671875 24.48828125 C-33.53783616 11.31979621 -17.83655631 4.04599201 0 0 Z " fill="#B61D1C" transform="translate(190.4453125,41.4453125)"/>
<path d="M0 0 C0.99 0 1.98 0 3 0 C1.73459948 3.79620155 0.21781569 4.48678188 -3.0625 6.6875 C-3.98160156 7.31011719 -4.90070313 7.93273437 -5.84765625 8.57421875 C-6.55792969 9.04472656 -7.26820313 9.51523438 -8 10 C-8 9.01 -8 8.02 -8 7 C-7.34 7 -6.68 7 -6 7 C-6 6.01 -6 5.02 -6 4 C-6.66 3.67 -7.32 3.34 -8 3 C-5.36 2.67 -2.72 2.34 0 2 C0 1.34 0 0.68 0 0 Z " fill="#D43134" transform="translate(268,100)"/>
<path d="M0 0 C0.99 0.33 1.98 0.66 3 1 C2.34 1 1.68 1 1 1 C0.79375 1.556875 0.5875 2.11375 0.375 2.6875 C-1.55000774 5.92501302 -4.03850902 7.68231141 -7 10 C-7.66 9.67 -8.32 9.34 -9 9 C-8.06725891 7.87105124 -7.12859878 6.74699124 -6.1875 5.625 C-5.66542969 4.99851562 -5.14335937 4.37203125 -4.60546875 3.7265625 C-3 2 -3 2 0 0 Z " fill="#D42D2D" transform="translate(165,72)"/>
<path d="M0 0 C-1.11666174 3.34998521 -1.74694925 3.79340222 -4.5625 5.6875 C-5.20316406 6.12449219 -5.84382812 6.56148437 -6.50390625 7.01171875 C-6.99761719 7.33785156 -7.49132812 7.66398437 -8 8 C-8.66 7.67 -9.32 7.34 -10 7 C-8.71372289 5.82739389 -7.42080217 4.6620717 -6.125 3.5 C-5.04605469 2.52546875 -5.04605469 2.52546875 -3.9453125 1.53125 C-2 0 -2 0 0 0 Z " fill="#AF2126" transform="translate(156,57)"/>
</svg>
