<?xml version="1.0" standalone="no"?>
<!DOCTYPE svg PUBLIC "-//W3C//DTD SVG 20010904//EN"
 "http://www.w3.org/TR/2001/REC-SVG-20010904/DTD/svg10.dtd">
<svg version="1.0" xmlns="http://www.w3.org/2000/svg"
 width="512.000000pt" height="512.000000pt" viewBox="0 0 512.000000 512.000000"
 preserveAspectRatio="xMidYMid meet">

<g transform="translate(0.000000,512.000000) scale(0.100000,-0.100000)"
fill="#000000" stroke="none">
<path d="M1202 1657 l-912 -912 103 -103 102 -102 913 913 912 912 -103 103
-102 102 -913 -913z"/>
<path d="M3107 1802 c-53 -53 -97 -102 -97 -107 0 -5 62 -71 137 -147 93 -94
132 -139 122 -143 -18 -6 -1308 -385 -1313 -385 -2 0 15 -63 37 -141 40 -139
41 -141 67 -136 38 8 1774 518 1780 523 4 5 -621 634 -630 634 -3 0 -49 -44
-103 -98z"/>
</g>
</svg>
